<svg width="172" height="84" viewBox="0 0 172 84" fill="none" xmlns="http://www.w3.org/2000/svg">
<g id="Group">
<g id="Group_2">
<path id="Vector" d="M48.046 78.576H37.2973V83.9797H48.046V78.576Z" fill="white"/>
<path id="Vector_2" d="M50.9151 72.8271H34.4283V77.8651H50.9151V72.8271Z" fill="white"/>
<path id="Vector_3" d="M62.3912 55.5192V60.5572H56.6531V70.6941H51.6223V55.5192H62.3912Z" fill="white"/>
<path id="Vector_4" d="M45.177 67.0578V72.0958H34.4283V66.3265H28.6902V55.5192H33.7009V61.2885H39.439V67.0578H45.177Z" fill="white"/>
<path id="Vector_5" d="M33.7009 49.7499H28.6902V54.7879H33.7009V49.7499Z" fill="white"/>
<path id="Vector_6" d="M39.439 15.1342V20.1925H27.9629V31.7311H22.9522V0H27.9629V15.1342H39.439Z" fill="white"/>
<path id="Vector_7" d="M45.177 9.36493V25.9618H28.6902V20.9035H40.1663V14.4232H28.6902V3.59564H33.7009V9.36493H45.177Z" fill="white"/>
<path id="Vector_8" d="M56.6531 15.1342V20.1925H45.8842V8.65392H34.4283V3.59564H50.9151V15.1342H56.6531Z" fill="white"/>
<path id="Vector_9" d="M22.2248 1.46265V25.9618H17.2141V8.65394H5.73804V3.59566H17.2141V1.46265H22.2248Z" fill="white"/>
<path id="Vector_10" d="M68.109 61.2885H63.0983V72.0958H68.109V61.2885Z" fill="white"/>
<path id="Vector_11" d="M33.7009 66.9766H28.6902V72.0958H33.7009V66.9766Z" fill="white"/>
<path id="Vector_12" d="M73.8471 26.3071H68.8364V34.5954H73.8471V26.3071Z" fill="white"/>
<path id="Vector_13" d="M73.8471 55.5192H68.8364V60.5572H73.8471V55.5192Z" fill="white"/>
<path id="Vector_14" d="M68.109 30.7966H63.0983V43.2697H68.109V30.7966Z" fill="white"/>
<path id="Vector_15" d="M62.371 20.9035H57.3603V43.2493H62.371V20.9035Z" fill="white"/>
<path id="Vector_16" d="M56.6531 20.9035V37.48H45.177V66.3265H40.1663V32.4421H51.6222V25.9618H45.8842V20.9035H56.6531Z" fill="white"/>
<path id="Vector_17" d="M56.6329 38.2114H51.6223V43.2696H56.6329V38.2114Z" fill="white"/>
<path id="Vector_18" d="M56.6531 49.7499V54.7879H50.915V72.0958H45.8842V49.7499H56.6531Z" fill="white"/>
<path id="Vector_19" d="M62.3911 43.9806V54.7879H57.3602V49.0186H45.8842V38.2114H50.915V43.9806H62.3911Z" fill="white"/>
<path id="Vector_20" d="M50.9151 26.6728V31.7311H39.439V43.2493H28.6902V38.2114H34.4283V31.7311H28.6902V26.6728H50.9151Z" fill="white"/>
<path id="Vector_21" d="M10.7487 9.36493H5.73804V25.9415H10.7487V9.36493Z" fill="white"/>
<path id="Vector_22" d="M16.4868 9.36493V31.7311H5.73804V26.6728H11.4761V9.36493H16.4868Z" fill="white"/>
<path id="Vector_23" d="M5.03089 9.36493H0V31.7108H5.03089V9.36493Z" fill="white"/>
<path id="Vector_24" d="M33.7009 32.4421V37.48H5.73804V32.4421H17.2141V26.6728H22.2248V32.4421H33.7009Z" fill="white"/>
<path id="Vector_25" d="M39.439 43.9807V60.5572H34.4283V49.0186H28.6902V43.9807H39.439Z" fill="white"/>
</g>
<g id="Group_3">
<path id="Vector_26" d="M83.5856 30.045H80.3529L85.606 15.2358H89.162L94.3545 30.045H91.0006L90.051 26.9978H84.616L83.5856 30.045ZM85.4444 24.4382H89.2024L87.384 18.5877H87.3436L85.4444 24.4382Z" fill="white"/>
<path id="Vector_27" d="M99.4056 30.045H96.5366V21.127H94.9607V19.0752H96.5366V18.1814C96.5366 15.9062 97.7691 15.053 99.7289 15.053C100.577 15.053 100.961 15.0733 101.204 15.0936V17.4298H100.396C99.4056 17.4298 99.3854 17.7345 99.3854 18.6486V19.0752H101.244V21.127H99.4056V30.045Z" fill="white"/>
<path id="Vector_28" d="M102.901 19.0752H105.649V20.9645H105.689C106.275 19.8472 106.942 18.7705 108.679 18.7705C108.861 18.7705 109.043 18.7908 109.225 18.8111V21.7364C108.982 21.6958 108.679 21.6958 108.397 21.6958C106.154 21.6958 105.75 23.0975 105.75 24.3163V30.0247H102.881V19.0752H102.901Z" fill="white"/>
<path id="Vector_29" d="M113.852 17.7751H110.983V15.0936H113.852V17.7751ZM113.852 19.0752V30.045H110.983V19.0752H113.852Z" fill="white"/>
<path id="Vector_30" d="M125.995 26.0431C125.894 27.1807 125.005 30.3294 121.004 30.3294C116.903 30.3294 115.953 27.1807 115.953 24.8648C115.953 21.3098 117.489 18.7705 121.186 18.7705C122.903 18.7705 125.732 19.5628 126.015 22.9756H123.105C122.984 22.2443 122.54 21.127 121.206 21.2082C119.408 21.2082 118.923 23.0162 118.923 24.3773C118.923 25.5758 118.963 27.9526 121.146 27.9526C122.6 27.9526 123.085 26.5509 123.085 26.0431H125.995Z" fill="white"/>
<path id="Vector_31" d="M136.844 27.8917C136.844 29.1918 137.127 29.4762 137.471 29.5981V30.0247H134.379C134.218 29.5168 134.177 29.334 134.117 28.7245C133.47 29.4152 132.541 30.3091 130.581 30.3091C128.944 30.3091 127.247 29.3746 127.247 27.1197C127.247 24.9664 128.601 23.8897 130.419 23.6053L133.006 23.2193C133.45 23.1584 134.016 22.9756 134.016 22.3458C134.016 21.127 132.864 21.066 132.137 21.066C130.702 21.066 130.46 21.9599 130.379 22.5896H127.611C127.934 19.2174 130.258 18.7502 132.5 18.7502C134.036 18.7502 136.844 19.2174 136.844 21.9192V27.8917ZM134.036 24.7023C133.753 24.9258 133.268 25.1086 132.096 25.2914C131.025 25.4742 130.157 25.7383 130.157 26.9369C130.157 27.9526 130.945 28.2573 131.49 28.2573C132.763 28.2573 134.056 27.4244 134.056 26.0837V24.7023H134.036Z" fill="white"/>
<path id="Vector_32" d="M149.29 30.045H146.421V23.3819C146.421 22.5693 146.381 21.2082 144.562 21.2082C143.29 21.2082 142.3 22.0818 142.3 23.7475V30.045H139.41V19.0752H142.158V20.6801H142.199C142.582 20.03 143.411 18.7908 145.472 18.7908C147.613 18.7908 149.27 20.0503 149.27 22.4677V30.045H149.29Z" fill="white"/>
<path id="Vector_33" d="M83.6866 41.543C83.7068 42.3758 84.1109 43.9401 86.7981 43.9401C88.2528 43.9401 89.8691 43.5947 89.8691 42.0305C89.8691 40.8726 88.7579 40.5679 87.2022 40.2022L85.6262 39.8365C83.2421 39.2881 80.9388 38.7396 80.9388 35.4893C80.9388 33.8438 81.8278 30.9388 86.596 30.9388C91.1016 30.9388 92.3139 33.9047 92.3341 35.733H89.3842C89.3034 35.0627 89.061 33.4985 86.3738 33.4985C85.2019 33.4985 83.8078 33.9251 83.8078 35.2658C83.8078 36.4237 84.7574 36.6675 85.3636 36.8097L88.9599 37.7035C90.9804 38.1911 92.819 39.024 92.819 41.6852C92.819 46.134 88.3134 46.5403 87.0203 46.5403C81.646 46.5403 80.7166 43.4322 80.7166 41.5836H83.6866V41.543Z" fill="white"/>
<path id="Vector_34" d="M98.1731 35.1236H99.9511V37.1754H98.1731V43.1275C98.1731 43.7572 98.1933 44.0213 99.3652 44.0213C99.547 44.0213 99.7491 44.001 99.9511 43.9807V46.1746C99.5066 46.195 99.0419 46.2153 98.5974 46.2153H98.2338C95.7486 46.2153 95.3041 45.2605 95.3041 43.8385V37.1754H93.8292V35.1033H95.3041V32.1374H98.1731V35.1236Z" fill="white"/>
<path id="Vector_35" d="M111.629 46.0934H108.881V44.5495H108.841C108.174 45.7277 107.043 46.3778 105.507 46.3778C103.345 46.3778 101.79 45.1386 101.79 42.3352V35.1236H104.659V41.9289C104.659 43.615 105.649 43.9604 106.518 43.9604C107.467 43.9604 108.74 43.4322 108.74 41.4617V35.1236H111.609V46.0934H111.629Z" fill="white"/>
<path id="Vector_36" d="M124.297 46.0934H121.489V44.712H121.449C120.741 45.9512 119.489 46.3778 118.297 46.3778C115.064 46.3778 113.71 43.4931 113.71 40.4866C113.71 36.6878 115.852 34.8392 118.236 34.8392C120.075 34.8392 120.943 35.8549 121.388 36.5456H121.428V31.2842H124.297V46.0934ZM119.004 44.001C120.822 44.001 121.55 42.4774 121.55 40.8523C121.55 39.1052 121.065 37.3176 119.085 37.3176C117.266 37.3176 116.64 38.9427 116.64 40.6897C116.64 41.9899 117.165 44.001 119.004 44.001Z" fill="white"/>
<path id="Vector_37" d="M136.238 42.8837C135.47 45.5245 133.309 46.3981 131.43 46.3981C128.359 46.3981 125.995 44.9151 125.995 40.385C125.995 39.0646 126.439 34.8392 131.228 34.8392C133.389 34.8392 136.359 35.8752 136.359 40.8929V41.4007H128.864C128.944 42.2336 129.106 44.0822 131.43 44.0822C132.238 44.0822 133.046 43.6759 133.268 42.8837H136.238ZM133.41 39.5115C133.248 37.7441 132.117 37.1956 131.187 37.1956C129.833 37.1956 129.106 38.0692 128.944 39.5115H133.41Z" fill="white"/>
<path id="Vector_38" d="M148.139 46.0933H145.27V39.4302C145.27 38.6177 145.229 37.2566 143.411 37.2566C142.138 37.2566 141.148 38.1301 141.148 39.7959V46.0933H138.279V35.1236H141.027V36.7284H141.067C141.451 36.0784 142.279 34.8392 144.34 34.8392C146.482 34.8392 148.139 36.0987 148.139 38.5161V46.0933Z" fill="white"/>
<path id="Vector_39" d="M154.018 35.1236H155.796V37.1754H154.018V43.1275C154.018 43.7572 154.038 44.0213 155.21 44.0213C155.392 44.0213 155.594 44.001 155.796 43.9807V46.1746C155.352 46.195 154.887 46.2153 154.442 46.2153H154.079C151.594 46.2153 151.149 45.2605 151.149 43.8385V37.1754H149.674V35.1033H151.149V32.1374H154.018V35.1236Z" fill="white"/>
<path id="Vector_40" d="M163.817 38.4552C163.696 37.7442 163.454 37.0129 161.898 37.0129C160.342 37.0129 160.14 37.602 160.14 38.0895C160.14 39.8162 166.969 38.5568 166.969 42.5993C166.969 45.7887 163.898 46.3778 162.181 46.3778C159.696 46.3778 157.008 45.5043 156.928 42.579H159.877C159.877 43.5135 160.443 44.1838 162.261 44.1838C163.736 44.1838 164.08 43.4525 164.08 43.0462C164.08 41.2179 157.311 42.5993 157.311 38.4958C157.311 36.891 158.322 34.8189 161.716 34.8189C163.858 34.8189 166.403 35.3471 166.626 38.4552H163.817Z" fill="white"/>
<path id="Vector_41" d="M169.131 31.2842H172V33.3969C172 35.9971 170.363 36.6675 169.192 36.9316V35.8752C170.545 35.4486 170.667 34.697 170.707 33.9251H169.131V31.2842Z" fill="white"/>
<path id="Vector_42" d="M90.4955 47.3325H93.3645V62.1417H90.2934L84.2725 51.5782H84.2321V62.1417H81.3631V47.3325H84.5958L90.4349 57.6522H90.4753V47.3325H90.4955Z" fill="white"/>
<path id="Vector_43" d="M105.467 58.9321C104.699 61.5729 102.537 62.4465 100.658 62.4465C97.5872 62.4465 95.2233 60.9635 95.2233 56.4334C95.2233 55.113 95.6678 50.8876 100.456 50.8876C102.618 50.8876 105.588 51.9236 105.588 56.9413V57.4491H98.0923C98.1731 58.282 98.3348 60.1306 100.658 60.1306C101.466 60.1306 102.275 59.7243 102.497 58.9321H105.467ZM102.638 55.5599C102.477 53.7925 101.345 53.244 100.416 53.244C99.0621 53.244 98.3348 54.1176 98.1731 55.5599H102.638Z" fill="white"/>
<path id="Vector_44" d="M110.72 51.1719H112.498V53.2237H110.72V59.1758C110.72 59.8056 110.74 60.0697 111.912 60.0697C112.094 60.0697 112.296 60.0493 112.498 60.029V62.223C112.054 62.2433 111.589 62.2636 111.144 62.2636H110.781C108.296 62.2636 107.851 61.3088 107.851 59.8868V53.2237H106.376V51.1516H107.851V48.1857H110.72V51.1719Z" fill="white"/>
<path id="Vector_45" d="M125.631 62.1417H122.681L120.984 54.1378H120.944L119.246 62.1417H116.296L113.225 51.1719H116.276L117.973 59.0539H118.014L119.549 51.1719H122.439L124.075 59.0539H124.116L125.813 51.1719H128.763L125.631 62.1417Z" fill="white"/>
<path id="Vector_46" d="M134.824 62.4261C131.894 62.4261 129.247 60.6182 129.247 56.6569C129.247 52.6956 131.894 50.8876 134.824 50.8876C137.754 50.8876 140.4 52.6956 140.4 56.6569C140.4 60.6182 137.754 62.4261 134.824 62.4261ZM134.824 53.305C132.601 53.305 132.197 55.2349 132.197 56.6569C132.197 58.0789 132.601 60.0087 134.824 60.0087C137.046 60.0087 137.45 58.0789 137.45 56.6569C137.45 55.2349 137.046 53.305 134.824 53.305Z" fill="white"/>
<path id="Vector_47" d="M142.401 51.172H145.148V53.0612H145.189C145.775 51.9439 146.441 50.8672 148.179 50.8672C148.361 50.8672 148.543 50.8876 148.725 50.9079V53.8332C148.482 53.7925 148.179 53.7925 147.896 53.7925C145.653 53.7925 145.249 55.1942 145.249 56.4131V62.1214H142.38V51.172H142.401Z" fill="white"/>
<path id="Vector_48" d="M153.351 62.1417H150.482V47.3325H153.351V55.3364L156.968 51.1719H160.504L156.645 55.4176L160.605 62.1417H157.15L154.543 57.4288L153.351 58.6679V62.1417Z" fill="white"/>
</g>
</g>
</svg>
