<svg width="33" height="32" viewBox="0 0 33 32" fill="none" xmlns="http://www.w3.org/2000/svg">
<path fill-rule="evenodd" clip-rule="evenodd" d="M16.5094 2.8818C20.7869 2.8818 21.2934 2.90055 22.9757 2.97557C24.5391 3.04433 25.3833 3.30688 25.9462 3.52567C26.6904 3.81323 27.2282 4.16329 27.7848 4.71965C28.3476 5.28226 28.6915 5.81361 28.9792 6.5575C29.1981 7.12011 29.4607 7.97027 29.5295 9.52682C29.6046 11.2146 29.6233 11.721 29.6233 15.9905C29.6233 20.2664 29.6046 20.7727 29.5295 22.4543C29.4607 24.0171 29.1981 24.861 28.9792 25.4236C28.6915 26.1675 28.3413 26.7051 27.7848 27.2614C27.2219 27.8241 26.6904 28.1679 25.9462 28.4554C25.3833 28.6742 24.5328 28.9368 22.9757 29.0055C21.2872 29.0805 20.7806 29.0993 16.5094 29.0993C12.2319 29.0993 11.7253 29.0805 10.0431 29.0055C8.47968 28.9368 7.63544 28.6742 7.07261 28.4554C6.32842 28.1679 5.7906 27.8178 5.23403 27.2614C4.6712 26.6988 4.32724 26.1675 4.03958 25.4236C3.8207 24.861 3.55804 24.0108 3.48925 22.4543C3.41421 20.7665 3.39545 20.2601 3.39545 15.9905C3.39545 11.7147 3.41421 11.2084 3.48925 9.52682C3.55804 7.96402 3.8207 7.12011 4.03958 6.5575C4.32724 5.81361 4.67745 5.27601 5.23403 4.71965C5.79686 4.15704 6.32842 3.81323 7.07261 3.52567C7.63544 3.30688 8.48593 3.04433 10.0431 2.97557C11.7253 2.90055 12.2319 2.8818 16.5094 2.8818ZM16.5094 0C12.1631 0 11.619 0.0187536 9.91177 0.0937679C8.21077 0.168782 7.04134 0.443835 6.02824 0.83766C4.97137 1.25024 4.0771 1.79409 3.18908 2.68801C2.2948 3.57568 1.75073 4.4696 1.33799 5.5198C0.94401 6.53875 0.668849 7.70147 0.593805 9.40179C0.518761 11.1146 0.5 11.6585 0.5 16.003C0.5 20.3476 0.518761 20.8915 0.593805 22.5981C0.668849 24.2984 0.94401 25.4674 1.33799 26.48C1.75073 27.5365 2.2948 28.4304 3.18908 29.3181C4.0771 30.2058 4.97137 30.7559 6.02199 31.1622C7.04134 31.556 8.20452 31.8311 9.90552 31.9061C11.6128 31.9811 12.1568 31.9998 16.5031 31.9998C20.8494 31.9998 21.3935 31.9811 23.1008 31.9061C24.8018 31.8311 25.9712 31.556 26.9843 31.1622C28.0349 30.7559 28.9292 30.2058 29.8172 29.3181C30.7052 28.4304 31.2555 27.5365 31.662 26.4863C32.056 25.4674 32.3312 24.3046 32.4062 22.6043C32.4813 20.8977 32.5 20.3539 32.5 16.0093C32.5 11.6647 32.4813 11.1209 32.4062 9.4143C32.3312 7.71397 32.056 6.545 31.662 5.5323C31.268 4.4696 30.724 3.57568 29.8297 2.68801C28.9417 1.80034 28.0474 1.25024 26.9968 0.843911C25.9774 0.450086 24.8143 0.175033 23.1133 0.100019C21.3998 0.0187536 20.8557 0 16.5094 0ZM16.5094 7.78273C11.9692 7.78273 8.2858 11.4647 8.2858 16.003C8.2858 20.5414 11.9692 24.2234 16.5094 24.2234C21.0495 24.2234 24.7329 20.5414 24.7329 16.003C24.7329 11.4647 21.0495 7.78273 16.5094 7.78273ZM16.5094 21.3353C13.5639 21.3353 11.175 18.9474 11.175 16.003C11.175 13.0587 13.5639 10.6708 16.5094 10.6708C19.4548 10.6708 21.8437 13.0587 21.8437 16.003C21.8437 18.9474 19.4548 21.3353 16.5094 21.3353ZM25.0581 9.37664C26.115 9.37664 26.978 8.52022 26.978 7.45752C26.978 6.40107 26.115 5.5384 25.0581 5.5384C24.0012 5.5384 23.1382 6.39482 23.1382 7.45752C23.1382 8.51397 23.995 9.37664 25.0581 9.37664Z" fill="#777777"/>
</svg>
