<svg width="33" height="32" viewBox="0 0 33 32" fill="none" xmlns="http://www.w3.org/2000/svg">
<path d="M30.1313 0H2.8625C1.55625 0 0.5 1.03125 0.5 2.30625V29.6875C0.5 30.9625 1.55625 32 2.8625 32H30.1313C31.4375 32 32.5 30.9625 32.5 29.6938V2.30625C32.5 1.03125 31.4375 0 30.1313 0ZM9.99375 27.2687H5.24375V11.9937H9.99375V27.2687ZM7.61875 9.9125C6.09375 9.9125 4.8625 8.68125 4.8625 7.1625C4.8625 5.64375 6.09375 4.4125 7.61875 4.4125C9.1375 4.4125 10.3687 5.64375 10.3687 7.1625C10.3687 8.675 9.1375 9.9125 7.61875 9.9125ZM27.7687 27.2687H23.025V19.8438C23.025 18.075 22.9937 15.7937 20.5562 15.7937C18.0875 15.7937 17.7125 17.725 17.7125 19.7188V27.2687H12.975V11.9937H17.525V14.0813H17.5875C18.2188 12.8813 19.7688 11.6125 22.075 11.6125C26.8813 11.6125 27.7687 14.775 27.7687 18.8875V27.2687Z" fill="#777777"/>
</svg>
