<svg width="48" height="24" viewBox="0 0 48 24" fill="none" xmlns="http://www.w3.org/2000/svg">
<g id="Group">
<g id="Group_2">
<path id="Vector" d="M13.4077 21.9285H10.4081V23.4365H13.4077V21.9285Z" fill="white"/>
<path id="Vector_2" d="M14.2093 20.3238H9.60828V21.7297H14.2093V20.3238Z" fill="white"/>
<path id="Vector_3" d="M17.4122 15.4941V16.9001H15.8108V19.729H14.4069V15.4941H17.4122Z" fill="white"/>
<path id="Vector_4" d="M12.607 18.7142V20.1202H9.60731V18.5101H8.00598V15.4941H9.40432V17.1042H11.0057V18.7142H12.607Z" fill="white"/>
<path id="Vector_5" d="M9.40432 13.8839H8.00598V15.2898H9.40432V13.8839Z" fill="white"/>
<path id="Vector_6" d="M11.006 4.22353V5.63516H7.80337V8.85525H6.40503V0H7.80337V4.22353H11.006Z" fill="white"/>
<path id="Vector_7" d="M12.607 2.61316V7.24487H8.00598V5.83325H11.2086V4.02478H8.00598V1.00311H9.40432V2.61316H12.607Z" fill="white"/>
<path id="Vector_8" d="M15.8106 4.2232V5.63483H12.8053V2.41474H9.60828V1.00311H14.2093V4.2232H15.8106Z" fill="white"/>
<path id="Vector_9" d="M6.20183 0.407959V7.24498H4.80348V2.41485H1.60083V1.00322H4.80348V0.407959H6.20183Z" fill="white"/>
<path id="Vector_10" d="M19.007 17.1038H17.6086V20.1198H19.007V17.1038Z" fill="white"/>
<path id="Vector_11" d="M9.40432 18.6913H8.00598V20.12H9.40432V18.6913Z" fill="white"/>
<path id="Vector_12" d="M20.6093 7.34167H19.2109V9.6547H20.6093V7.34167Z" fill="white"/>
<path id="Vector_13" d="M20.6093 15.4941H19.2109V16.9001H20.6093V15.4941Z" fill="white"/>
<path id="Vector_14" d="M19.007 8.59479H17.6086V12.0757H19.007V8.59479Z" fill="white"/>
<path id="Vector_15" d="M17.406 5.83344H16.0077V12.0695H17.406V5.83344Z" fill="white"/>
<path id="Vector_16" d="M15.8102 5.83344V10.4595H12.6076V18.5097H11.2092V9.05353H14.4062V7.24506H12.8049V5.83344H15.8102Z" fill="white"/>
<path id="Vector_17" d="M15.8052 10.6638H14.4069V12.0754H15.8052V10.6638Z" fill="white"/>
<path id="Vector_18" d="M15.8098 13.8839V15.2898H14.2084V20.1199H12.8044V13.8839H15.8098Z" fill="white"/>
<path id="Vector_19" d="M17.4111 12.2739V15.2899H16.0071V13.6798H12.8044V10.6638H14.2084V12.2739H17.4111Z" fill="white"/>
<path id="Vector_20" d="M14.2083 7.44385V8.85547H11.0057V12.0699H8.00598V10.6639H9.60731V8.85547H8.00598V7.44385H14.2083Z" fill="white"/>
<path id="Vector_21" d="M2.99917 2.6134H1.60083V7.23945H2.99917V2.6134Z" fill="white"/>
<path id="Vector_22" d="M4.6005 2.6134V8.85516H1.60083V7.44354H3.20216V2.6134H4.6005Z" fill="white"/>
<path id="Vector_23" d="M1.40398 2.6134H0V8.84949H1.40398V2.6134Z" fill="white"/>
<path id="Vector_24" d="M9.40448 9.05389V10.4598H1.60083V9.05389H4.80348V7.44385H6.20183V9.05389H9.40448Z" fill="white"/>
<path id="Vector_25" d="M11.0057 12.2735V16.8995H9.60731V13.6795H8.00598V12.2735H11.0057Z" fill="white"/>
</g>
<g id="Group_3">
<path id="Vector_26" d="M23.3262 8.38454H22.4241L23.8901 4.25171H24.8824L26.3315 8.38454H25.3955L25.1305 7.53416H23.6138L23.3262 8.38454ZM23.845 6.81985H24.8937L24.3863 5.18712H24.375L23.845 6.81985Z" fill="white"/>
<path id="Vector_27" d="M27.7416 8.38478H26.9409V5.89601H26.5011V5.32342H26.9409V5.07398C26.9409 4.43903 27.2848 4.20093 27.8318 4.20093C28.0686 4.20093 28.1757 4.2066 28.2434 4.21227V4.86422H28.0178C27.7416 4.86422 27.7359 4.94926 27.7359 5.20437V5.32342H28.2547V5.89601H27.7416V8.38478Z" fill="white"/>
<path id="Vector_28" d="M28.7168 5.32338H29.4837V5.85061H29.4949C29.6584 5.53881 29.8445 5.23834 30.3294 5.23834C30.3802 5.23834 30.4309 5.24401 30.4817 5.24968V6.06604C30.414 6.0547 30.3294 6.0547 30.2505 6.0547C29.6246 6.0547 29.5118 6.44588 29.5118 6.78603V8.37906H28.7112V5.32338H28.7168Z" fill="white"/>
<path id="Vector_29" d="M31.7731 4.96067H30.9724V4.21234H31.7731V4.96067ZM31.7731 5.3235V8.38485H30.9724V5.3235H31.7731Z" fill="white"/>
<path id="Vector_30" d="M35.1622 7.26791C35.134 7.58538 34.8859 8.4641 33.7695 8.4641C32.6249 8.4641 32.3599 7.58538 32.3599 6.93909C32.3599 5.94699 32.7884 5.23834 33.8202 5.23834C34.2995 5.23834 35.0889 5.45944 35.1678 6.41186H34.3559C34.3221 6.20777 34.198 5.89597 33.8259 5.91864C33.324 5.91864 33.1887 6.4232 33.1887 6.80303C33.1887 7.13751 33.2 7.80081 33.8089 7.80081C34.2149 7.80081 34.3502 7.40963 34.3502 7.26791H35.1622Z" fill="white"/>
<path id="Vector_31" d="M38.1901 7.78373C38.1901 8.14656 38.2691 8.22593 38.3649 8.25994V8.379H37.5022C37.4571 8.23727 37.4458 8.18624 37.4289 8.01617C37.2485 8.20892 36.9891 8.45836 36.4422 8.45836C35.9855 8.45836 35.5118 8.19758 35.5118 7.5683C35.5118 6.96737 35.8896 6.66691 36.3971 6.58754L37.1188 6.47982C37.2429 6.46282 37.4007 6.41179 37.4007 6.23605C37.4007 5.8959 37.0793 5.87889 36.8764 5.87889C36.476 5.87889 36.4084 6.12833 36.3858 6.30408H35.6133C35.7035 5.363 36.352 5.2326 36.9778 5.2326C37.4064 5.2326 38.1901 5.363 38.1901 6.117V7.78373ZM37.4064 6.89367C37.3274 6.95603 37.1921 7.00706 36.8651 7.05808C36.5662 7.1091 36.3238 7.1828 36.3238 7.51728C36.3238 7.80074 36.5437 7.88578 36.6959 7.88578C37.0511 7.88578 37.412 7.65334 37.412 7.27918V6.89367H37.4064Z" fill="white"/>
<path id="Vector_32" d="M41.663 8.3848H40.8623V6.52531C40.8623 6.29855 40.851 5.91871 40.3436 5.91871C39.9883 5.91871 39.7121 6.16249 39.7121 6.62736V8.3848H38.9058V5.32345H39.6726V5.77131H39.6839C39.791 5.5899 40.0222 5.24408 40.5973 5.24408C41.195 5.24408 41.6573 5.59557 41.6573 6.2702V8.3848H41.663Z" fill="white"/>
<path id="Vector_33" d="M23.3541 11.5934C23.3598 11.8258 23.4725 12.2624 24.2225 12.2624C24.6284 12.2624 25.0795 12.166 25.0795 11.7295C25.0795 11.4063 24.7694 11.3213 24.3352 11.2192L23.8954 11.1172C23.2301 10.9641 22.5873 10.8111 22.5873 9.90399C22.5873 9.44479 22.8354 8.63409 24.1661 8.63409C25.4234 8.63409 25.7618 9.46179 25.7674 9.97202H24.9442C24.9216 9.78494 24.854 9.34841 24.104 9.34841C23.777 9.34841 23.388 9.46746 23.388 9.84163C23.388 10.1648 23.653 10.2328 23.8221 10.2725L24.8258 10.5219C25.3896 10.658 25.9027 10.8904 25.9027 11.6331C25.9027 12.8746 24.6453 12.988 24.2845 12.988C22.7846 12.988 22.5253 12.1206 22.5253 11.6047H23.3541V11.5934Z" fill="white"/>
<path id="Vector_34" d="M27.3975 9.80181H27.8936V10.3744H27.3975V12.0355C27.3975 12.2112 27.4031 12.2849 27.7301 12.2849C27.7809 12.2849 27.8373 12.2792 27.8936 12.2736V12.8858C27.7696 12.8915 27.6399 12.8972 27.5159 12.8972H27.4144C26.7208 12.8972 26.5968 12.6307 26.5968 12.2339V10.3744H26.1852V9.79614H26.5968V8.96844H27.3975V9.80181Z" fill="white"/>
<path id="Vector_35" d="M31.1526 12.8635H30.3857V12.4327H30.3744C30.1884 12.7615 29.8726 12.9429 29.4441 12.9429C28.8408 12.9429 28.4066 12.5971 28.4066 11.8147V9.80219H29.2073V11.7014C29.2073 12.1719 29.4836 12.2683 29.726 12.2683C29.991 12.2683 30.3463 12.1209 30.3463 11.571V9.80219H31.1469V12.8635H31.1526Z" fill="white"/>
<path id="Vector_36" d="M34.6882 12.8634H33.9045V12.4779H33.8932C33.6958 12.8237 33.3462 12.9427 33.0136 12.9427C32.1114 12.9427 31.7336 12.1377 31.7336 11.2987C31.7336 10.2385 32.3313 9.72264 32.9967 9.72264C33.5098 9.72264 33.7522 10.0061 33.8763 10.1988H33.8875V8.73053H34.6882V12.8634ZM33.2109 12.2794C33.7184 12.2794 33.9214 11.8542 33.9214 11.4007C33.9214 10.9132 33.7861 10.4143 33.2335 10.4143C32.726 10.4143 32.5512 10.8678 32.5512 11.3554C32.5512 11.7182 32.6978 12.2794 33.2109 12.2794Z" fill="white"/>
<path id="Vector_37" d="M38.0205 11.9679C37.8062 12.7049 37.2029 12.9487 36.6785 12.9487C35.8214 12.9487 35.1617 12.5348 35.1617 11.2706C35.1617 10.9021 35.2858 9.7229 36.6221 9.7229C37.2254 9.7229 38.0543 10.012 38.0543 11.4123V11.554H35.9624C35.985 11.7865 36.0301 12.3024 36.6785 12.3024C36.904 12.3024 37.1296 12.189 37.1916 11.9679H38.0205ZM37.2311 11.0268C37.186 10.5336 36.8702 10.3805 36.6108 10.3805C36.2331 10.3805 36.0301 10.6243 35.985 11.0268H37.2311Z" fill="white"/>
<path id="Vector_38" d="M41.3414 12.8636H40.5408V11.0041C40.5408 10.7774 40.5295 10.3975 40.022 10.3975C39.6668 10.3975 39.3905 10.6413 39.3905 11.1062V12.8636H38.5898V9.80227H39.3567V10.2501H39.368C39.4751 10.0687 39.7063 9.7229 40.2814 9.7229C40.8791 9.7229 41.3414 10.0744 41.3414 10.749V12.8636Z" fill="white"/>
<path id="Vector_39" d="M42.9825 9.80181H43.4787V10.3744H42.9825V12.0355C42.9825 12.2112 42.9882 12.2849 43.3152 12.2849C43.366 12.2849 43.4223 12.2792 43.4787 12.2736V12.8858C43.3547 12.8915 43.225 12.8972 43.1009 12.8972H42.9995C42.3059 12.8972 42.1819 12.6307 42.1819 12.2339V10.3744H41.7703V9.79614H42.1819V8.96844H42.9825V9.80181Z" fill="white"/>
<path id="Vector_40" d="M45.7167 10.7319C45.6828 10.5335 45.6152 10.3294 45.181 10.3294C44.7468 10.3294 44.6905 10.4938 44.6905 10.6299C44.6905 11.1118 46.5963 10.7603 46.5963 11.8885C46.5963 12.7785 45.7392 12.9429 45.2599 12.9429C44.5664 12.9429 43.8165 12.6992 43.7939 11.8828H44.6172C44.6172 12.1436 44.775 12.3307 45.2825 12.3307C45.6941 12.3307 45.79 12.1266 45.79 12.0132C45.79 11.503 43.9011 11.8885 43.9011 10.7433C43.9011 10.2954 44.183 9.71716 45.1303 9.71716C45.7279 9.71716 46.4384 9.86456 46.5004 10.7319H45.7167Z" fill="white"/>
<path id="Vector_41" d="M47.1992 8.73053H47.9999V9.32012C47.9999 10.0458 47.5432 10.2329 47.2161 10.3066V10.0118C47.5939 9.89271 47.6277 9.68295 47.639 9.46752H47.1992V8.73053Z" fill="white"/>
<path id="Vector_42" d="M25.2545 13.2094H26.0552V17.3422H25.1981L23.5179 14.3942H23.5066V17.3422H22.7059V13.2094H23.6081L25.2376 16.0893H25.2489V13.2094H25.2545Z" fill="white"/>
<path id="Vector_43" d="M29.4324 16.446C29.2182 17.183 28.6149 17.4268 28.0905 17.4268C27.2334 17.4268 26.5737 17.013 26.5737 15.7487C26.5737 15.3802 26.6978 14.201 28.0341 14.201C28.6374 14.201 29.4663 14.4902 29.4663 15.8905V16.0322H27.3744C27.3969 16.2646 27.4421 16.7805 28.0905 16.7805C28.316 16.7805 28.5416 16.6671 28.6036 16.446H29.4324ZM28.6431 15.505C28.5979 15.0117 28.2822 14.8587 28.0228 14.8587C27.645 14.8587 27.4421 15.1024 27.3969 15.505H28.6431Z" fill="white"/>
<path id="Vector_44" d="M30.8982 14.2806H31.3944V14.8532H30.8982V16.5143C30.8982 16.69 30.9038 16.7637 31.2309 16.7637C31.2816 16.7637 31.338 16.7581 31.3944 16.7524V17.3647C31.2703 17.3703 31.1406 17.376 31.0166 17.376H30.9151C30.2216 17.376 30.0975 17.1096 30.0975 16.7127V14.8532H29.6859V14.275H30.0975V13.4473H30.8982V14.2806Z" fill="white"/>
<path id="Vector_45" d="M35.0605 17.3417H34.2373L33.7637 15.108H33.7524L33.2788 17.3417H32.4556L31.5985 14.2803H32.4499L32.9236 16.48H32.9348L33.3634 14.2803H34.1697L34.6264 16.48H34.6376L35.1113 14.2803H35.9345L35.0605 17.3417Z" fill="white"/>
<path id="Vector_46" d="M37.6258 17.4211C36.8082 17.4211 36.0696 16.9166 36.0696 15.8111C36.0696 14.7056 36.8082 14.201 37.6258 14.201C38.4434 14.201 39.182 14.7056 39.182 15.8111C39.182 16.9166 38.4434 17.4211 37.6258 17.4211ZM37.6258 14.8757C37.0056 14.8757 36.8928 15.4143 36.8928 15.8111C36.8928 16.2079 37.0056 16.7465 37.6258 16.7465C38.246 16.7465 38.3588 16.2079 38.3588 15.8111C38.3588 15.4143 38.246 14.8757 37.6258 14.8757Z" fill="white"/>
<path id="Vector_47" d="M39.7395 14.2804H40.5064V14.8076H40.5176C40.6811 14.4958 40.8672 14.1953 41.3521 14.1953C41.4029 14.1953 41.4536 14.201 41.5044 14.2067V15.023C41.4367 15.0117 41.3521 15.0117 41.2732 15.0117C40.6473 15.0117 40.5346 15.4028 40.5346 15.743V17.336H39.7339V14.2804H39.7395Z" fill="white"/>
<path id="Vector_48" d="M42.7959 17.3422H41.9952V13.2094H42.7959V15.443L43.8052 14.2808H44.7919L43.715 15.4657L44.8201 17.3422H43.8559L43.1286 16.0269L42.7959 16.3727V17.3422Z" fill="white"/>
</g>
</g>
</svg>
