<svg width="33" height="32" viewBox="0 0 33 32" fill="none" xmlns="http://www.w3.org/2000/svg">
<path d="M10.5669 32C22.6394 32 29.2444 19.6874 29.2444 9.01315C29.2444 8.66701 29.2381 8.31318 29.2256 7.96704C30.5105 6.82345 31.6193 5.40696 32.5 3.78412C31.3034 4.43936 30.0329 4.86729 28.7319 5.0533C30.1017 4.04275 31.1274 2.45522 31.6187 0.585003C30.3301 1.52493 28.9208 2.18797 27.4513 2.5457C26.4611 1.2509 25.152 0.393583 23.7262 0.106307C22.3005 -0.180969 20.8376 0.117793 19.5637 0.956402C18.2897 1.79501 17.2757 3.12676 16.6785 4.74574C16.0812 6.36473 15.9339 8.18078 16.2594 9.91312C13.65 9.75197 11.0972 8.91772 8.76664 7.46447C6.43604 6.01122 4.37959 3.97141 2.73062 1.47728C1.89253 3.25564 1.63608 5.36001 2.01337 7.36272C2.39067 9.36543 3.37342 11.1162 4.76188 12.2592C3.7195 12.2185 2.69997 11.8731 1.7875 11.2515V11.3515C1.78657 13.2178 2.3108 15.0268 3.27108 16.4712C4.23136 17.9155 5.56843 18.906 7.055 19.2743C6.08941 19.5995 5.07598 19.6468 4.09313 19.4128C4.51261 21.0178 5.32876 22.4215 6.42769 23.4282C7.52662 24.4348 8.85349 24.9941 10.2231 25.0279C7.8979 27.2759 5.02557 28.4951 2.06875 28.4894C1.54438 28.4884 1.02053 28.4488 0.5 28.3709C3.50381 30.7426 6.99804 32.0023 10.5669 32Z" fill="#777777"/>
</svg>
