<svg width="24" height="24" viewBox="0 0 24 24" fill="none" xmlns="http://www.w3.org/2000/svg">
<path d="M7.55016 24C16.6045 24 21.5583 14.7655 21.5583 6.75987C21.5583 6.50026 21.5536 6.23488 21.5442 5.97528C22.5079 5.11759 23.3395 4.05522 24 2.83809C23.1025 3.32952 22.1496 3.65047 21.1739 3.78998C22.2013 3.03206 22.9705 1.84141 23.3391 0.438752C22.3726 1.1437 21.3156 1.64098 20.2134 1.90927C19.4708 0.938173 18.489 0.295188 17.4197 0.0797305C16.3504 -0.135727 15.2532 0.0883448 14.2977 0.717301C13.3423 1.34626 12.5818 2.34507 12.1338 3.55931C11.6859 4.77355 11.5754 6.13559 11.8195 7.43484C9.86249 7.31397 7.94794 6.68829 6.19998 5.59835C4.45203 4.50842 2.90969 2.97856 1.67297 1.10796C1.0444 2.44173 0.852057 4.02001 1.13503 5.52204C1.418 7.02407 2.15506 8.33714 3.19641 9.19439C2.41463 9.16384 1.64998 8.9048 0.965625 8.43865V8.51365C0.964925 9.91334 1.3581 11.2701 2.07831 12.3534C2.79852 13.4367 3.80132 14.1795 4.91625 14.4557C4.19206 14.6996 3.43198 14.7351 2.69484 14.5596C3.00945 15.7633 3.62157 16.8161 4.44577 17.5711C5.26997 18.3261 6.26512 18.7456 7.29234 18.771C5.54842 20.4569 3.39417 21.3713 1.17656 21.367C0.783287 21.3663 0.390399 21.3366 0 21.2782C2.25286 23.057 4.87353 24.0017 7.55016 24Z" fill="white"/>
</svg>
