<svg width="665" height="495" viewBox="0 0 665 495" fill="none" xmlns="http://www.w3.org/2000/svg">
<path d="M182.071 32.1305C93.112 -13.4163 33.1812 25.6403 29.8772 89.0639C29.6896 92.6646 29.4739 94.7136 29.8772 98.2964C32.0174 117.31 62.8588 115.069 63.1856 134.2C63.6264 159.996 15.4388 140.705 4.25533 163.949C-13.6486 201.161 80.0961 165.488 107.255 187.543C134.414 209.599 81.6334 290.639 127.753 325.517C173.872 360.396 180.164 226.471 233.827 235.244C293.686 245.03 302.494 312.695 293.27 378.86C284.046 445.026 290.876 477.825 335.802 491.189C378.015 503.745 390.508 447.466 431.628 431.691C476.849 414.342 492.096 399.377 554.101 412.2C616.106 425.023 622.049 336.933 580.235 290.639C538.421 244.346 525.711 220.501 543.852 201.392C561.993 182.283 637.827 181.884 657.613 134.2C689.296 57.8443 574.361 9.85474 492.096 2.38155C427.202 -3.5136 335.802 60.8538 335.802 60.8538C335.802 60.8538 293.27 89.0639 182.071 32.1305Z" stroke="#CC2630" stroke-width="3" stroke-linecap="round" stroke-linejoin="round" stroke-dasharray="6 6"/>
</svg>
