<svg width="529" height="413" viewBox="0 0 529 413" fill="none" xmlns="http://www.w3.org/2000/svg">
<path d="M20.4598 153.567C-11.9402 175.967 -2.04536 279.804 52.9598 300.567C76.1602 309.325 94.9149 288.288 116.46 300.567C151.774 320.694 147.46 365.567 252.46 330.067C291.149 316.986 370.881 473.177 509.46 382.567C561.46 348.567 481.96 300.567 469.46 266.567C456.96 232.567 528.189 235.284 526.46 201.567C524.498 163.322 453.96 206.067 445.96 145.567C437.96 85.067 531.46 77.567 526.46 31.567C521.46 -14.433 445.96 6.56704 445.96 6.56704C445.96 6.56704 406.539 14.6544 380.96 17.567C327.607 23.6418 250.96 -8.93301 243.46 17.567C235.96 44.067 184.72 0.594026 147.46 6.56704C106.848 13.0774 79.8868 21.9762 52.9598 53.067C25.9552 84.2475 60.9598 125.567 20.4598 153.567Z" stroke="#CC2630" stroke-width="3" stroke-linecap="round" stroke-linejoin="round" stroke-dasharray="6 6"/>
</svg>
