<svg width="639" height="517" viewBox="0 0 639 517" fill="none" xmlns="http://www.w3.org/2000/svg">
<path d="M59.6118 391.694C40.0481 412.974 14.146 413.63 4.21136 440.778C-16.5747 497.579 115.012 523.639 154.584 477.722C194.156 431.806 275.74 548.502 329.755 505.167C366.742 475.493 336.049 421.387 373.02 391.694C418.812 354.919 483.294 422.306 523.393 391.694C563.492 361.083 508.689 330.45 523.393 296.167C544.192 247.673 641.581 295.111 636.832 222.805C632.083 150.5 636.832 85.583 557.161 35.4439C477.49 -14.6953 395.541 -3.23388 304.957 35.4439C233.113 66.1199 263.802 131.5 154.584 167.389C45.366 203.277 123.988 321.673 59.6118 391.694Z" stroke="#CC2630" stroke-width="3" stroke-linecap="round" stroke-linejoin="round" stroke-dasharray="6 6"/>
</svg>
